<?xml version="1.0" standalone="no"?>
<!DOCTYPE svg PUBLIC "-//W3C//DTD SVG 20010904//EN"
 "http://www.w3.org/TR/2001/REC-SVG-20010904/DTD/svg10.dtd">
<svg version="1.0" xmlns="http://www.w3.org/2000/svg"
 width="1080.000000pt" height="1080.000000pt" viewBox="0 0 1080.000000 1080.000000"
 preserveAspectRatio="xMidYMid meet">
<metadata>
Created by potrace 1.14, written by Peter Selinger 2001-2017
</metadata>
<g transform="translate(0.000000,1080.000000) scale(0.100000,-0.100000)"
fill="#000000" stroke="none">
<path d="M5148 10695 c-2 -2 -33 -5 -68 -6 -36 -1 -75 -6 -88 -10 -17 -7 -21
-6 -16 3 4 6 3 8 -3 5 -5 -3 -38 -9 -74 -12 -120 -11 -320 -38 -384 -51 -11
-3 -37 -7 -59 -9 -21 -2 -47 -7 -56 -10 -19 -6 -45 -12 -95 -21 -16 -2 -48
-10 -70 -15 -22 -6 -51 -13 -65 -15 -14 -2 -74 -17 -135 -34 -60 -17 -117 -32
-125 -35 -54 -14 -271 -85 -310 -102 -8 -3 -19 -7 -25 -9 -36 -9 -111 -41
-117 -49 -4 -5 -8 -7 -8 -3 0 6 -35 -7 -115 -42 -11 -5 -42 -19 -70 -31 -91
-39 -220 -99 -240 -111 -11 -6 -51 -28 -90 -49 -38 -20 -92 -49 -120 -64 -27
-15 -62 -34 -77 -42 -16 -8 -28 -19 -28 -24 0 -6 -5 -7 -11 -3 -6 3 -14 2 -18
-3 -8 -12 -169 -113 -180 -113 -5 0 -11 -4 -13 -8 -1 -5 -32 -28 -68 -52 -53
-35 -163 -113 -215 -152 -57 -43 -198 -157 -233 -188 -16 -14 -64 -56 -108
-94 -92 -81 -361 -350 -419 -420 -22 -26 -51 -60 -65 -75 -38 -41 -71 -81
-110 -131 -19 -25 -37 -47 -40 -50 -3 -3 -27 -34 -53 -70 -27 -36 -55 -73 -63
-83 -34 -42 -264 -391 -264 -402 0 -4 -8 -19 -19 -33 -24 -35 -92 -157 -138
-252 -20 -41 -41 -76 -45 -78 -4 -2 -8 -12 -8 -23 0 -10 -4 -19 -10 -19 -5 0
-9 -3 -8 -7 1 -5 -3 -19 -9 -33 -6 -14 -11 -29 -11 -34 0 -5 -4 -12 -9 -15
-11 -8 -73 -149 -73 -167 0 -8 -4 -14 -8 -14 -5 0 -9 -6 -10 -12 0 -14 -47
-133 -62 -160 -6 -10 -10 -22 -10 -27 0 -5 -5 -22 -12 -38 -6 -15 -12 -30 -13
-33 0 -3 -18 -55 -38 -116 -21 -61 -39 -119 -42 -130 -2 -10 -23 -84 -45 -164
-23 -80 -43 -158 -45 -175 -3 -16 -14 -70 -25 -120 -11 -49 -22 -108 -25 -130
-3 -22 -7 -47 -10 -55 -2 -8 -6 -32 -10 -54 -3 -21 -8 -42 -11 -47 -3 -5 1 -9
8 -9 8 0 9 -3 3 -8 -5 -4 -11 -11 -11 -17 -6 -39 -20 -157 -29 -240 -24 -223
-28 -925 -5 -925 3 0 5 -19 6 -43 0 -59 18 -237 30 -302 3 -16 7 -46 10 -65 9
-57 44 -242 54 -280 5 -19 11 -48 14 -65 3 -16 12 -59 21 -95 9 -36 18 -69 19
-75 5 -21 37 -133 58 -200 12 -38 23 -72 23 -75 12 -46 19 -67 25 -75 3 -5 12
-30 19 -54 7 -25 18 -56 24 -70 6 -14 11 -29 12 -33 2 -5 4 -10 5 -13 1 -3 3
-8 5 -12 1 -5 5 -17 10 -28 4 -11 19 -47 32 -80 13 -33 33 -79 44 -102 10 -24
19 -45 19 -47 0 -2 19 -44 42 -93 23 -48 43 -90 43 -93 5 -15 19 -46 24 -50 3
-3 21 -34 39 -70 45 -87 89 -168 111 -205 10 -16 28 -47 39 -67 59 -105 267
-417 292 -438 3 -3 17 -21 30 -40 30 -43 136 -176 199 -249 100 -117 142 -161
286 -306 148 -148 243 -236 352 -325 125 -103 173 -140 179 -140 3 0 17 -10
28 -22 12 -13 29 -27 38 -33 9 -5 51 -35 95 -64 43 -30 94 -65 113 -78 19 -12
40 -26 45 -31 6 -5 51 -33 100 -63 50 -30 92 -57 93 -61 2 -5 12 -8 23 -8 10
0 19 -4 19 -8 0 -5 37 -28 83 -51 45 -24 90 -51 101 -60 10 -9 19 -14 20 -11
3 7 159 -72 168 -85 4 -5 8 -6 8 -1 0 5 7 3 15 -4 8 -7 15 -9 15 -4 0 5 4 4 8
-1 6 -9 59 -35 167 -80 17 -7 46 -20 65 -28 19 -8 55 -23 80 -32 25 -9 54 -21
65 -25 46 -19 61 -24 77 -25 10 -1 24 -7 31 -13 8 -7 23 -13 35 -15 12 -2 25
-6 28 -10 4 -4 17 -7 29 -7 12 0 25 -3 29 -7 3 -4 12 -8 19 -9 7 -1 39 -11 72
-22 61 -21 160 -49 205 -58 14 -3 57 -14 95 -24 39 -10 108 -26 155 -35 47 -9
96 -19 110 -22 14 -4 36 -7 50 -8 14 -1 32 -5 40 -8 8 -3 33 -8 55 -11 22 -3
58 -8 80 -11 114 -17 227 -29 287 -29 27 -1 48 -3 48 -6 0 -15 614 -20 780 -7
236 19 374 35 407 48 15 5 23 5 23 -2 0 -6 6 -6 18 -1 14 8 70 19 132 27 8 1
29 5 45 9 17 3 41 8 55 11 86 16 139 27 165 35 17 5 41 11 55 14 45 7 154 37
190 50 19 8 37 14 40 14 3 0 25 6 50 13 25 7 48 12 53 11 4 -1 7 2 7 8 0 6 3
9 8 8 15 -4 112 26 112 36 0 5 3 7 6 4 6 -7 93 20 112 35 6 5 12 7 12 3 0 -4
18 3 40 14 22 11 40 18 40 15 0 -3 17 4 37 15 21 11 43 20 50 20 12 0 63 23
124 56 14 7 29 11 33 7 3 -3 6 -1 6 5 0 7 9 12 20 12 11 0 20 5 20 12 0 6 3 9
6 5 6 -6 307 143 312 155 2 4 8 6 13 2 5 -3 9 0 9 5 0 6 4 11 9 11 10 0 201
109 211 120 3 3 15 11 28 17 12 7 32 19 45 25 12 7 24 16 27 19 3 3 55 38 115
79 61 40 112 76 115 80 3 3 21 17 40 30 60 42 232 177 279 220 15 14 58 52 97
85 72 62 362 350 427 424 20 23 37 47 37 52 0 5 4 9 8 9 4 0 35 33 67 72 33
40 69 83 80 96 11 13 18 24 15 25 -2 1 7 13 20 27 24 24 32 35 103 130 37 50
156 227 204 305 18 28 37 57 45 66 7 9 14 22 16 30 2 7 7 16 11 19 4 3 15 19
23 35 8 17 28 53 43 80 16 28 42 77 59 110 17 33 34 62 39 63 4 2 7 7 7 12 0
5 21 53 47 107 26 54 48 100 48 103 1 3 13 31 28 64 15 32 27 64 27 70 0 7 4
16 9 22 12 12 71 162 71 180 0 8 5 14 12 14 6 0 9 3 5 6 -3 3 3 26 13 50 11
24 17 44 14 44 -2 0 2 13 11 30 9 16 13 30 9 30 -4 0 0 7 7 17 8 9 13 18 12
20 -2 1 -3 4 -2 6 0 1 2 9 4 17 2 8 16 53 30 100 39 127 99 366 119 470 3 14
8 36 11 50 3 14 7 39 9 55 4 31 14 92 22 135 15 83 29 201 39 315 3 33 9 96
13 140 14 170 6 740 -13 845 -2 14 -7 59 -11 100 -9 107 -14 149 -28 219 -3
12 -8 42 -10 65 -3 22 -9 55 -12 71 -3 17 -7 39 -9 50 -1 11 -3 20 -4 20 -1 0
-4 14 -7 30 -4 31 -7 43 -17 85 -5 21 -41 172 -52 220 -2 8 -18 62 -35 120
-17 58 -33 112 -35 121 -2 8 -10 32 -19 53 -9 21 -16 45 -16 53 0 8 -6 29 -14
46 -8 18 -26 66 -41 107 -33 89 -69 179 -96 237 -10 24 -19 45 -19 47 0 2 -17
39 -37 83 -21 43 -36 81 -35 85 1 3 -5 12 -13 18 -8 7 -15 21 -15 30 0 10 -3
20 -7 22 -5 2 -20 28 -36 58 -15 30 -47 91 -72 135 -25 44 -49 89 -55 100 -6
11 -16 29 -23 40 -69 115 -92 150 -99 153 -4 2 -8 8 -8 13 0 10 -82 133 -92
137 -5 2 -8 8 -8 13 0 8 -43 69 -84 119 -6 9 -26 36 -44 62 -18 26 -38 52 -45
60 -7 7 -28 33 -47 58 -19 25 -40 49 -47 53 -7 4 -13 12 -13 17 0 5 -10 20
-22 32 -13 13 -50 55 -83 93 -78 89 -361 373 -449 450 -67 58 -79 69 -128 110
-12 10 -66 52 -118 93 -52 40 -102 79 -110 85 -8 7 -31 23 -50 37 -19 13 -41
30 -48 37 -7 7 -17 13 -21 13 -4 0 -21 11 -37 25 -16 14 -34 25 -41 25 -6 0
-13 3 -15 8 -3 8 -123 87 -178 118 -19 10 -37 22 -40 25 -3 3 -25 16 -50 29
-25 14 -52 30 -60 36 -8 6 -77 44 -154 83 -76 39 -144 75 -150 79 -6 3 -13 7
-16 8 -24 5 -70 27 -70 33 0 4 -6 8 -12 8 -7 0 -33 9 -58 20 -64 29 -128 57
-180 77 -25 10 -53 22 -64 28 -10 5 -26 11 -35 13 -27 6 -121 41 -128 48 -3 4
-16 7 -28 7 -11 0 -25 4 -31 8 -7 7 -71 29 -104 37 -3 1 -32 9 -65 20 -33 10
-64 19 -70 21 -5 1 -64 16 -130 34 -66 17 -129 33 -140 35 -11 3 -42 9 -70 15
-27 6 -61 13 -75 16 -30 7 -54 11 -100 17 -19 3 -42 8 -50 11 -8 2 -35 8 -60
11 -25 3 -61 9 -80 11 -19 3 -48 7 -65 9 -16 2 -61 7 -100 11 -38 4 -94 8
-122 8 -29 1 -53 4 -53 7 0 3 -12 6 -27 7 -62 5 -631 11 -635 7z"/>
</g>
</svg>
