<?xml version="1.0" standalone="no"?>
<!DOCTYPE svg PUBLIC "-//W3C//DTD SVG 20010904//EN"
 "http://www.w3.org/TR/2001/REC-SVG-20010904/DTD/svg10.dtd">
<svg version="1.0" xmlns="http://www.w3.org/2000/svg"
 width="512.000000pt" height="512.000000pt" viewBox="0 0 512.000000 512.000000"
 preserveAspectRatio="xMidYMid meet">
<metadata>
Created by potrace 1.14, written by Peter Selinger 2001-2017
</metadata>
<g transform="translate(0.000000,512.000000) scale(0.100000,-0.100000)"
fill="#000000" stroke="none">
<path d="M2399 5096 c-2 -3 -31 -7 -64 -9 -33 -3 -60 -6 -60 -7 0 0 -21 -3
-46 -5 -46 -4 -82 -10 -129 -20 -14 -4 -34 -7 -45 -9 -33 -5 -88 -17 -120 -27
-274 -81 -464 -153 -487 -184 -4 -5 -8 -7 -8 -3 0 14 -262 -136 -268 -153 -2
-5 -8 -9 -14 -9 -8 0 -123 -78 -155 -105 -6 -5 -28 -23 -49 -40 -86 -70 -225
-205 -314 -305 -58 -64 -167 -214 -231 -315 -57 -90 -171 -306 -169 -320 0 -3
-7 -20 -16 -37 -38 -73 -125 -346 -149 -469 -9 -47 -17 -97 -19 -119 -1 -14
-5 -30 -8 -35 -3 -6 -4 -18 -3 -27 2 -9 -1 -34 -7 -55 -12 -50 -18 -421 -7
-498 4 -33 10 -85 13 -115 3 -30 8 -66 11 -80 3 -14 8 -41 11 -60 2 -19 7 -43
10 -52 3 -9 7 -26 9 -37 6 -25 11 -45 20 -86 10 -42 56 -188 64 -200 3 -5 6
-15 7 -20 3 -22 90 -224 122 -285 58 -111 95 -175 104 -178 4 -2 8 -10 8 -18
0 -8 3 -14 8 -14 4 0 13 -13 20 -28 6 -16 21 -38 32 -50 11 -12 20 -24 20 -28
0 -3 30 -45 67 -93 130 -165 283 -316 483 -475 23 -18 192 -130 215 -142 37
-20 70 -39 75 -44 5 -6 140 -73 150 -76 3 0 36 -15 73 -32 38 -18 73 -32 78
-32 4 0 25 -7 46 -16 71 -31 96 -40 140 -49 10 -2 32 -9 48 -15 17 -7 41 -14
55 -17 14 -2 43 -9 65 -14 22 -5 51 -12 65 -14 14 -3 34 -7 46 -10 12 -3 39
-7 60 -10 21 -3 53 -8 69 -10 97 -16 149 -19 320 -19 184 -1 312 8 415 29 13
2 40 7 60 10 37 6 50 8 112 24 20 5 39 6 42 3 4 -3 6 0 6 6 0 6 6 9 14 6 8 -3
17 0 21 5 3 6 10 9 15 6 5 -3 18 -1 28 4 11 6 30 12 43 15 90 18 370 138 519
223 62 35 205 127 215 138 6 6 28 23 50 38 22 14 52 38 68 52 15 14 27 24 27
21 0 -2 13 8 28 22 210 198 281 275 385 415 37 51 74 101 82 112 8 10 15 23
15 27 0 5 11 21 25 36 14 15 25 34 25 42 0 9 5 21 11 27 36 36 196 384 214
463 2 8 4 17 6 20 1 3 3 10 4 15 1 6 5 17 8 25 10 25 55 194 55 210 1 8 8 44
16 80 14 64 18 93 33 220 10 80 10 393 0 475 -12 111 -16 140 -23 175 -3 19
-8 45 -10 58 -5 28 -11 57 -23 107 -6 22 -13 54 -16 70 -4 17 -9 37 -11 45 -3
8 -5 16 -5 17 1 7 -73 214 -90 250 -10 24 -19 45 -19 47 0 11 -75 164 -92 189
-11 15 -17 27 -14 27 8 0 -162 268 -184 290 -3 3 -18 23 -34 45 -17 22 -38 49
-47 60 -140 160 -275 292 -389 378 -30 23 -57 45 -60 48 -11 12 -208 138 -275
175 -83 47 -262 131 -315 149 -3 1 -12 5 -20 8 -33 15 -167 58 -195 63 -16 3
-34 9 -39 14 -5 5 -15 6 -22 3 -8 -3 -14 0 -14 7 0 6 -4 9 -9 5 -5 -3 -28 1
-50 9 -22 7 -38 9 -35 4 4 -6 -4 -4 -17 2 -12 7 -39 14 -58 15 -20 2 -43 5
-51 8 -8 4 -40 8 -70 11 -30 3 -66 8 -80 11 -28 8 -415 17 -421 11z"/>
</g>
</svg>
